<?xml version="1.0" encoding="UTF-8"?>
<!-- PROTOTYPE — static review workspace using the current PoC fixture. -->
<svg xmlns="http://www.w3.org/2000/svg" xmlns:xlink="http://www.w3.org/1999/xlink" width="1440" height="900" viewBox="0 0 1440 900" role="img" aria-labelledby="title desc">
  <title id="title">AI Review — результаты ревью документа</title>
  <desc id="desc">Документ показан слева, адресные замечания агента — в постоянной правой панели. Выбранное замечание связано с подсвеченным фрагментом страницы.</desc>
  <defs>
    <style>
      .ui { font-family: Arial, "Segoe UI", sans-serif; fill: #1D2125; }
      .muted { fill: #44546F; }
      .subtle { fill: #626F86; }
      .label { font-size: 12px; font-weight: 700; letter-spacing: .15px; }
      .meta { font-size: 12px; }
      .body { font-size: 14px; }
      .body-strong { font-size: 14px; font-weight: 700; }
      .section { font-size: 16px; font-weight: 700; }
      .title { font-size: 20px; font-weight: 700; }
      .nav { font-size: 14px; font-weight: 600; }
      .tiny { font-size: 11px; }
      .icon { fill: none; stroke: #44546F; stroke-width: 1.7; stroke-linecap: round; stroke-linejoin: round; }
      .icon-light { fill: none; stroke: #FFFFFF; stroke-width: 1.7; stroke-linecap: round; stroke-linejoin: round; }
    </style>
    <filter id="pageShadow" x="-15%" y="-10%" width="130%" height="130%">
      <feDropShadow dx="0" dy="2" stdDeviation="7" flood-color="#091E42" flood-opacity="0.20"/>
    </filter>
    <filter id="panelShadow" x="-10%" y="-5%" width="120%" height="110%">
      <feDropShadow dx="-4" dy="0" stdDeviation="6" flood-color="#091E42" flood-opacity="0.08"/>
    </filter>
    <clipPath id="documentViewport">
      <rect x="56" y="192" width="944" height="708"/>
    </clipPath>
  </defs>

  <rect width="1440" height="900" fill="#E9EBEF"/>

  <!-- Global navigation -->
  <rect x="0" y="0" width="1440" height="56" fill="#FFFFFF"/>
  <line x1="0" y1="55.5" x2="1440" y2="55.5" stroke="#DCDFE4"/>
  <rect x="16" y="14" width="28" height="28" rx="4" fill="#E30611"/>
  <text x="30" y="33" text-anchor="middle" class="ui" font-size="12" font-weight="700" fill="#FFFFFF">AR</text>
  <text x="56" y="35" class="ui" font-size="16" font-weight="700">AI Review</text>
  <line x1="157" y1="14" x2="157" y2="42" stroke="#DCDFE4"/>
  <rect x="174" y="10" width="194" height="36" rx="4" fill="#FFFFFF" stroke="#8590A2"/>
  <rect x="186" y="18" width="20" height="20" rx="3" fill="#FFF0F1"/>
  <text x="196" y="32" text-anchor="middle" class="ui" font-size="9" font-weight="700" fill="#B80D18">M</text>
  <text x="216" y="33" class="ui nav">MTS / NET</text>
  <path d="M346 24l5 5 5-5" class="icon"/>
  <text x="430" y="34" class="ui nav">Ревью</text>
  <rect x="412" y="53" width="74" height="3" fill="#E30611"/>
  <text x="523" y="34" class="ui nav muted">Профили</text>
  <text x="616" y="34" class="ui nav muted">Команда</text>

  <text x="1017" y="33" class="ui meta subtle">Статус AI-ревью</text>
  <rect x="1131" y="14" width="145" height="28" rx="14" fill="#FFECEB" stroke="#E06C66"/>
  <path d="M1148 22v8M1148 34v1" stroke="#AE2E24" stroke-width="2" stroke-linecap="round"/>
  <text x="1161" y="33" class="ui label" fill="#AE2E24">Нужны правки</text>
  <circle cx="1320" cy="28" r="16" fill="#F1F2F4"/>
  <text x="1320" y="33" text-anchor="middle" class="ui body-strong muted">?</text>
  <circle cx="1372" cy="28" r="16" fill="#7A0D16"/>
  <text x="1372" y="33" text-anchor="middle" class="ui tiny" font-weight="700" fill="#FFFFFF">АИ</text>

  <!-- Utility rail -->
  <rect x="0" y="56" width="56" height="844" fill="#7A0D16"/>
  <rect x="8" y="72" width="40" height="40" rx="5" fill="#5B0710"/>
  <path d="M28 82v20M18 92h20" class="icon-light" opacity="0.8"/>
  <rect x="8" y="120" width="40" height="40" rx="5" fill="#FFFFFF"/>
  <circle cx="28" cy="140" r="10" fill="none" stroke="#7A0D16" stroke-width="1.8"/>
  <path d="M28 134v7l5 3" fill="none" stroke="#7A0D16" stroke-width="1.8" stroke-linecap="round"/>
  <path d="M18 174h20v17H18zM22 170h12l2 4H20z" class="icon-light" opacity="0.75"/>
  <path d="M20 219h16v16H20zM24 215h8l2 4H22z" class="icon-light" opacity="0.75"/>
  <path d="M18 274h20M18 280h14M18 286h18" class="icon-light" opacity="0.75"/>
  <circle cx="28" cy="838" r="9" class="icon-light" opacity="0.75"/>
  <path d="M28 825v4M28 847v4M15 838h4M37 838h4" class="icon-light" opacity="0.75"/>
  <circle cx="28" cy="878" r="14" fill="#FFFFFF" opacity="0.16"/>
  <text x="28" y="882" text-anchor="middle" class="ui tiny" font-weight="700" fill="#FFFFFF">АИ</text>

  <!-- Document header -->
  <rect x="56" y="56" width="944" height="88" fill="#FFFFFF"/>
  <line x1="56" y1="143.5" x2="1000" y2="143.5" stroke="#DCDFE4"/>
  <text x="80" y="79" class="ui meta subtle">Ревью  /  R-1042</text>
  <text x="80" y="108" class="ui title">Тестовые данные.pdf</text>
  <text x="80" y="130" class="ui meta subtle">Версия 1 · проверено 04.09.2026 в 15:16 · полный охват</text>

  <rect x="643" y="80" width="112" height="36" rx="4" fill="#FFFFFF" stroke="#8590A2"/>
  <path d="M659 90h14v14h-14zM662 87h8l2 3h-12z" class="icon"/>
  <text x="681" y="103" class="ui body-strong muted">Контекст</text>
  <rect x="731" y="87" width="17" height="17" rx="8.5" fill="#F1F2F4"/>
  <text x="739.5" y="99" text-anchor="middle" class="ui tiny muted">4</text>

  <rect x="767" y="80" width="78" height="36" rx="4" fill="#FFFFFF" stroke="#8590A2"/>
  <text x="783" y="103" class="ui body-strong muted">v1</text>
  <path d="M827 92l5 5 5-5" class="icon"/>

  <rect x="857" y="80" width="119" height="36" rx="4" fill="#E30611"/>
  <text x="916.5" y="103" text-anchor="middle" class="ui body-strong" fill="#FFFFFF">Новая версия</text>

  <!-- Viewer toolbar -->
  <rect x="56" y="144" width="944" height="48" fill="#FAFBFC"/>
  <line x1="56" y1="191.5" x2="1000" y2="191.5" stroke="#C7CCD4"/>
  <rect x="72" y="152" width="224" height="32" rx="4" fill="#FFFFFF" stroke="#B7BEC8"/>
  <circle cx="88" cy="168" r="6" class="icon"/>
  <path d="M92 172l5 5" class="icon"/>
  <text x="108" y="173" class="ui meta subtle">Поиск в документе</text>
  <line x1="320" y1="154" x2="320" y2="182" stroke="#DCDFE4"/>
  <path d="M344 171l-5-5 5-5" class="icon"/>
  <text x="368" y="173" class="ui body-strong">5 / 9</text>
  <path d="M421 161l5 5-5 5" class="icon"/>
  <line x1="449" y1="154" x2="449" y2="182" stroke="#DCDFE4"/>
  <path d="M474 168h12" class="icon"/>
  <text x="514" y="173" text-anchor="middle" class="ui body-strong">90%</text>
  <path d="M544 162v12M538 168h12" class="icon"/>
  <rect x="894" y="152" width="90" height="32" rx="4" fill="#FFFFFF" stroke="#B7BEC8"/>
  <path d="M911 160v16M906 165l5-5 5 5M906 171l5 5 5-5" class="icon"/>
  <text x="926" y="173" class="ui meta muted">По ширине</text>

  <!-- Document viewport -->
  <g clip-path="url(#documentViewport)">
    <rect x="56" y="192" width="944" height="708" fill="#E9EBEF"/>
    <rect x="203" y="-171" width="650" height="920" fill="#FFFFFF" filter="url(#pageShadow)"/>
    <image x="204" y="-170" width="648" height="916" xlink:href="assets/test-data-page-05.png" preserveAspectRatio="xMidYMid meet"/>

    <!-- Addressable findings -->
    <rect x="281" y="454" width="493" height="58" rx="3" fill="#FFF4E5" fill-opacity="0.45" stroke="#E56910" stroke-width="1.5"/>
    <circle cx="795" cy="465" r="12" fill="#E56910"/>
    <text x="795" y="469" text-anchor="middle" class="ui tiny" font-weight="700" fill="#FFFFFF">4</text>

    <rect x="281" y="548" width="505" height="47" rx="3" fill="#FFF4E5" fill-opacity="0.45" stroke="#E56910" stroke-width="1.5"/>
    <circle cx="807" cy="560" r="12" fill="#E56910"/>
    <text x="807" y="564" text-anchor="middle" class="ui tiny" font-weight="700" fill="#FFFFFF">2</text>

    <rect x="281" y="602" width="518" height="84" rx="3" fill="#FFE9EB" fill-opacity="0.58" stroke="#E30611" stroke-width="2.5"/>
    <circle cx="821" cy="616" r="14" fill="#E30611"/>
    <text x="821" y="620" text-anchor="middle" class="ui body-strong" fill="#FFFFFF">3</text>
  </g>

  <!-- Agent panel -->
  <rect x="1000" y="56" width="440" height="844" fill="#FFFFFF" filter="url(#panelShadow)"/>
  <line x1="1000.5" y1="56" x2="1000.5" y2="900" stroke="#C7CCD4"/>

  <circle cx="1032" cy="84" r="16" fill="#FFF0F1"/>
  <rect x="1025" y="77" width="14" height="14" rx="3" fill="#E30611"/>
  <circle cx="1029" cy="84" r="1.5" fill="#FFFFFF"/><circle cx="1035" cy="84" r="1.5" fill="#FFFFFF"/>
  <text x="1058" y="82" class="ui section">Результат AI-ревью</text>
  <text x="1058" y="103" class="ui meta subtle">9 замечаний · прочитано 141 из 141 фрагментов</text>
  <circle cx="1408" cy="84" r="14" fill="#F1F2F4"/>
  <text x="1408" y="88" text-anchor="middle" class="ui body-strong muted">···</text>

  <!-- Tabs -->
  <text x="1018" y="143" class="ui body-strong">Замечания</text>
  <rect x="1016" y="154" width="92" height="2" fill="#E30611"/>
  <text x="1136" y="143" class="ui body-strong subtle">Сводка</text>
  <line x1="1000" y1="155.5" x2="1440" y2="155.5" stroke="#DCDFE4"/>

  <!-- Filters -->
  <rect x="1016" y="170" width="58" height="28" rx="4" fill="#FFF0F1" stroke="#FFBDC2"/>
  <text x="1045" y="189" text-anchor="middle" class="ui label" fill="#B80D18">Все 9</text>
  <rect x="1082" y="170" width="100" height="28" rx="4" fill="#F1F2F4"/>
  <circle cx="1098" cy="184" r="5" fill="#AE2E24"/>
  <text x="1110" y="189" class="ui meta">Высокий 6</text>
  <rect x="1190" y="170" width="102" height="28" rx="4" fill="#F1F2F4"/>
  <circle cx="1206" cy="184" r="5" fill="#E56910"/>
  <text x="1218" y="189" class="ui meta">Средний 3</text>
  <text x="1424" y="189" text-anchor="end" class="ui tiny subtle">Разобрано 0 из 9</text>

  <!-- Selected finding -->
  <rect x="1016" y="214" width="408" height="414" rx="5" fill="#FFFFFF" stroke="#E30611" stroke-width="1.5"/>
  <rect x="1016" y="214" width="4" height="414" rx="2" fill="#E30611"/>
  <rect x="1032" y="230" width="76" height="24" rx="12" fill="#FFECEB"/>
  <circle cx="1045" cy="242" r="4.5" fill="#AE2E24"/>
  <text x="1055" y="246" class="ui tiny" font-weight="700" fill="#AE2E24">ВЫСОКИЙ</text>
  <text x="1394" y="246" text-anchor="end" class="ui meta subtle">F-003 · стр. 5–6</text>

  <text x="1032" y="279" class="ui body-strong">Не определена семантика</text>
  <text x="1032" y="299" class="ui body-strong">часового сдвига</text>

  <text x="1032" y="330" class="ui label muted">ПРОБЛЕМА</text>
  <text x="1032" y="351" class="ui meta">Заданы региональные значения 7 и 3 часа, но нет</text>
  <text x="1032" y="369" class="ui meta">исходного пояса, направления сдвига и связи с полями.</text>

  <text x="1032" y="398" class="ui label muted">ПОЧЕМУ ЭТО ВАЖНО</text>
  <text x="1032" y="419" class="ui meta">Ошибка времени влияет на фильтрацию, партиции</text>
  <text x="1032" y="437" class="ui meta">и порядок событий.</text>

  <rect x="1032" y="453" width="376" height="67" rx="4" fill="#F7F8FA" stroke="#DCDFE4"/>
  <text x="1046" y="474" class="ui label muted">ВОПРОС ДЛЯ УТОЧНЕНИЯ</text>
  <text x="1046" y="493" class="ui meta">Из какого времени в какое выполняется перевод и как</text>
  <text x="1046" y="509" class="ui meta">связаны FIELD_TIME_ZONE_SHIFT и FIELD_TIMEZONE_CALC?</text>

  <path d="M1034 537h13v13h-13zM1038 533h8l2 4h-12z" class="icon"/>
  <text x="1055" y="548" class="ui meta" fill="#B80D18">Тестовые данные.pdf · стр. 5–6 · открыта стр. 5</text>

  <rect x="1032" y="560" width="104" height="30" rx="4" fill="#F1F2F4"/>
  <text x="1084" y="580" text-anchor="middle" class="ui meta muted">Принять</text>
  <rect x="1144" y="560" width="104" height="30" rx="4" fill="#F1F2F4"/>
  <text x="1196" y="580" text-anchor="middle" class="ui meta muted">Отклонить</text>
  <rect x="1256" y="560" width="152" height="30" rx="4" fill="#F1F2F4"/>
  <text x="1332" y="580" text-anchor="middle" class="ui meta muted">Нужен контекст</text>

  <rect x="1032" y="596" width="376" height="32" rx="4" fill="#FFFFFF" stroke="#E30611"/>
  <text x="1220" y="617" text-anchor="middle" class="ui body-strong" fill="#B80D18">Открыть диалог по замечанию</text>

  <!-- Collapsed findings -->
  <rect x="1016" y="640" width="408" height="78" rx="5" fill="#FFFFFF" stroke="#DCDFE4"/>
  <circle cx="1036" cy="660" r="6" fill="#AE2E24"/>
  <text x="1052" y="665" class="ui meta subtle">F-001 · Высокий · стр. 2</text>
  <text x="1032" y="692" class="ui body-strong">Не определена граница задержки</text>
  <path d="M1395 674l6 6-6 6" class="icon"/>

  <rect x="1016" y="730" width="408" height="78" rx="5" fill="#FFFFFF" stroke="#DCDFE4"/>
  <circle cx="1036" cy="750" r="6" fill="#AE2E24"/>
  <text x="1052" y="755" class="ui meta subtle">F-002 · Высокий · стр. 5</text>
  <text x="1032" y="782" class="ui body-strong">Не назван список очищаемых полей</text>
  <path d="M1395 764l6 6-6 6" class="icon"/>

  <!-- Human decision disclaimer -->
  <rect x="1016" y="824" width="408" height="60" rx="4" fill="#F7F8FA" stroke="#DCDFE4"/>
  <circle cx="1036" cy="844" r="9" fill="#FFFFFF" stroke="#8590A2"/>
  <text x="1036" y="848" text-anchor="middle" class="ui tiny" font-weight="700" fill="#44546F">i</text>
  <text x="1054" y="844" class="ui tiny muted">Это кандидаты на замечания, а не экспертно</text>
  <text x="1054" y="861" class="ui tiny muted">подтверждённые дефекты документа.</text>
</svg>
